<?xml version="1.0" encoding="UTF-8"?>
<svg version="1.1" xmlns="http://www.w3.org/2000/svg" width="321" height="229">
<path d="M0 0 C105.93 0 211.86 0 321 0 C321 75.57 321 151.14 321 229 C215.07 229 109.14 229 0 229 C0 153.43 0 77.86 0 0 Z " fill="#FAFBFB" transform="translate(0,0)"/>
<path d="M0 0 C0.57234375 0.38929687 1.1446875 0.77859375 1.734375 1.1796875 C3.28125 2.200625 3.28125 2.200625 4.859375 3.2421875 C11.03165101 8.70616954 14.34112125 17.23814113 15.734375 25.1796875 C15.734375 26.4996875 15.734375 27.8196875 15.734375 29.1796875 C16.78625 29.1384375 17.838125 29.0971875 18.921875 29.0546875 C24.79363982 29.24720438 24.79363982 29.24720438 27.734375 31.1796875 C30.15674939 37.73873201 30.75059776 44.72156696 31.671875 51.6171875 C32.74596477 59.45003622 33.83633846 67.24522402 35.421875 74.9921875 C36.89251474 82.38534922 37.42099687 89.65861233 37.734375 97.1796875 C36.46597974 97.68584048 35.19454398 98.18437849 33.921875 98.6796875 C33.21417969 98.958125 32.50648438 99.2365625 31.77734375 99.5234375 C29.734375 100.1796875 29.734375 100.1796875 26.734375 100.1796875 C26.239375 101.6646875 26.239375 101.6646875 25.734375 103.1796875 C18.56667827 104.03913972 11.51218299 104.32676523 4.296875 104.3125 C2.68990753 104.31447891 2.68990753 104.31447891 1.05047607 104.3164978 C-2.3882548 104.31839635 -5.82690258 104.31212361 -9.265625 104.3046875 C-10.42993042 104.30380127 -11.59423584 104.30291504 -12.79382324 104.30200195 C-29.30595891 104.28716984 -45.77652138 104.11429256 -62.265625 103.1796875 C-62.90454978 89.05235065 -61.01610264 75.17351735 -59.265625 61.1796875 C-59.13220703 60.10412598 -58.99878906 59.02856445 -58.86132812 57.92041016 C-58.48496506 54.92214471 -58.09754974 51.92562623 -57.703125 48.9296875 C-57.58864014 48.044021 -57.47415527 47.15835449 -57.35620117 46.24584961 C-55.61770187 33.53176437 -55.61770187 33.53176437 -53.265625 31.1796875 C-51.74634462 31.10788786 -50.22395018 31.09576743 -48.703125 31.1171875 C-47.87683594 31.12621094 -47.05054687 31.13523438 -46.19921875 31.14453125 C-45.56113281 31.15613281 -44.92304687 31.16773438 -44.265625 31.1796875 C-44.11867188 30.44105469 -43.97171875 29.70242187 -43.8203125 28.94140625 C-40.89511169 15.71075663 -35.71053332 6.93757953 -24.515625 -0.6953125 C-17.02797973 -4.43913513 -7.16940481 -4.29571776 0 0 Z " fill="#F3F6F6" transform="translate(161.265625,21.8203125)"/>
<path d="M0 0 C7.70308934 -0.46218536 13.51452772 -0.4112897 20 4 C21.546875 5.0209375 21.546875 5.0209375 23.125 6.0625 C29.29727601 11.52648204 32.60674625 20.05845363 34 28 C34 29.32 34 30.64 34 32 C35.051875 31.95875 36.10375 31.9175 37.1875 31.875 C43.05926482 32.06751688 43.05926482 32.06751688 46 34 C48.42237439 40.55904451 49.01622276 47.54187946 49.9375 54.4375 C51.01158977 62.27034872 52.10196346 70.06553652 53.6875 77.8125 C55.15813974 85.20566172 55.68662187 92.47892483 56 100 C54.73160474 100.50615298 53.46016898 101.00469099 52.1875 101.5 C51.47980469 101.7784375 50.77210938 102.056875 50.04296875 102.34375 C48 103 48 103 45 103 C44.505 104.485 44.505 104.485 44 106 C36.83230327 106.85945222 29.77780799 107.14707773 22.5625 107.1328125 C20.95553253 107.13479141 20.95553253 107.13479141 19.31610107 107.1368103 C15.8773702 107.13870885 12.43872242 107.13243611 9 107.125 C7.83569458 107.12411377 6.67138916 107.12322754 5.47180176 107.12231445 C-11.04033391 107.10748234 -27.51089638 106.93460506 -44 106 C-44.63892478 91.87266315 -42.75047764 77.99382985 -41 64 C-40.86658203 62.92443848 -40.73316406 61.84887695 -40.59570312 60.74072266 C-40.21934006 57.74245721 -39.83192474 54.74593873 -39.4375 51.75 C-39.32301514 50.8643335 -39.20853027 49.97866699 -39.09057617 49.06616211 C-38.42709154 44.21393115 -37.47131295 39.67283942 -36 35 C-34.02 35 -32.04 35 -30 35 C-30.71825455 35.59683846 -30.71825455 35.59683846 -31.45101929 36.20573425 C-33.38725244 38.44857485 -33.50742659 39.77843526 -33.78369141 42.70825195 C-33.92866562 44.14168694 -33.92866562 44.14168694 -34.0765686 45.6040802 C-34.16731659 46.63836655 -34.25806458 47.67265289 -34.3515625 48.73828125 C-34.45592621 49.81063522 -34.56028992 50.8829892 -34.66781616 51.98783875 C-34.999398 55.42833179 -35.31222146 58.87025192 -35.625 62.3125 C-35.8425633 64.58930642 -36.06130034 66.866001 -36.28125 69.14257812 C-37.32796142 80.08528024 -38.31278047 91.02805636 -39 102 C-15.40556812 101.52189601 11.3973438 99.8456909 29 82 C39.80083994 69.93950876 38.49295059 52.0212998 38 37 C35.03 36.67 32.06 36.34 29 36 C29.66 36.99 30.32 37.98 31 39 C31.25 42.5625 31.25 42.5625 31 46 C29 48 29 48 26.58203125 48.4296875 C24 48 24 48 22.19921875 45.8828125 C21.45091797 44.51769531 21.45091797 44.51769531 20.6875 43.125 C20.17574219 42.22007813 19.66398437 41.31515625 19.13671875 40.3828125 C18 38 18 38 18 36 C13.05 36 8.1 36 3 36 C3.99 34.68 4.98 33.36 6 32 C8.91796875 31.609375 8.91796875 31.609375 12.1875 31.75 C13.27417969 31.78609375 14.36085937 31.8221875 15.48046875 31.859375 C16.72763672 31.92898437 16.72763672 31.92898437 18 32 C17.71657321 29.60293301 17.42356312 27.20768917 17.125 24.8125 C17.04636719 24.13896484 16.96773437 23.46542969 16.88671875 22.77148438 C16.39528587 18.89672516 15.64019099 15.54915277 14 12 C16.375 12.625 16.375 12.625 19 14 C21.46147363 19.48580984 21.3283415 24.91578631 21.30273438 30.81054688 C21.42193806 35.12879638 21.64069004 36.57225005 24.54296875 40.02734375 C25.35378906 40.67832031 26.16460937 41.32929687 27 42 C26.67 41.01 26.34 40.02 26 39 C25.90722381 37.20220358 25.81816343 35.40400901 25.76074219 33.60473633 C25.44523648 24.53815394 24.43344187 16.33697921 18.625 9 C12.2656386 4.15477227 6.81335886 3.40318044 -1 3 C-0.67 2.01 -0.34 1.02 0 0 Z " fill="#153D41" transform="translate(143,19)"/>
<path d="M0 0 C3.19356147 0.62482724 3.95340372 1.02443786 5.875 3.5625 C7.21184046 10.35810567 5.89744956 15.90785593 2.24609375 21.6796875 C0.62609417 23.9043023 -0.9629375 25.84776077 -3.125 27.5625 C-3.785 27.5625 -4.445 27.5625 -5.125 27.5625 C-4.795 29.8725 -4.465 32.1825 -4.125 34.5625 C-3.5371875 33.263125 -3.5371875 33.263125 -2.9375 31.9375 C-0.86478557 28.07796279 0.66082069 25.56240069 3.875 22.5625 C6.77865571 21.98616002 8.87446861 22.212438 11.875 22.5625 C12.875 23.5625 12.875 23.5625 12.98852539 25.51196289 C12.98328857 26.3446167 12.97805176 27.17727051 12.97265625 28.03515625 C12.96943359 28.93427734 12.96621094 29.83339844 12.96289062 30.75976562 C12.95451172 31.70529297 12.94613281 32.65082031 12.9375 33.625 C12.93298828 34.57439453 12.92847656 35.52378906 12.92382812 36.50195312 C12.9120011 38.85553065 12.89552025 41.20898477 12.875 43.5625 C15.6782499 38.17032635 17.89566337 32.87292696 19.75 27.078125 C21.0576211 24.15413893 22.36294294 22.54474139 24.875 20.5625 C30.08419195 19.44489155 34.98233299 20.71415913 39.875 22.5625 C41.86869031 22.93170191 43.86779077 23.27575582 45.875 23.5625 C46.205 21.9125 46.535 20.2625 46.875 18.5625 C48.525 18.5625 50.175 18.5625 51.875 18.5625 C52.865 22.0275 52.865 22.0275 53.875 25.5625 C54.390625 24.9025 54.90625 24.2425 55.4375 23.5625 C57.875 21.5625 57.875 21.5625 61.375 21.0625 C65.47933354 21.64883336 66.3762151 22.34746857 68.875 25.5625 C69.92318671 31.02694393 69.72894057 36.7877438 67.0625 41.75 C64.875 44.5625 64.875 44.5625 61.875 45.5625 C61.875 46.2225 61.875 46.8825 61.875 47.5625 C59.235 47.5625 56.595 47.5625 53.875 47.5625 C53.545 46.9025 53.215 46.2425 52.875 45.5625 C51.13679587 49.03890825 51.13577043 53.13754935 50.71289062 56.9765625 C50.28085283 60.54526494 49.76708137 63.47500321 47.875 66.5625 C46.225 66.2325 44.575 65.9025 42.875 65.5625 C42.39332985 52.94987805 43.82971572 40.99376684 45.875 28.5625 C43.895 28.5625 41.915 28.5625 39.875 28.5625 C39.93300781 29.28695312 39.99101562 30.01140625 40.05078125 30.7578125 C40.46536991 39.64185525 40.46536991 39.64185525 37.625 43.125 C33.91873229 46.41010093 32.31311094 47.40841668 27.375 47.9375 C23.875 47.5625 23.875 47.5625 21.4375 45.6875 C19.875 43.5625 19.875 43.5625 19.875 41.5625 C19.215 41.5625 18.555 41.5625 17.875 41.5625 C17.606875 42.490625 17.33875 43.41875 17.0625 44.375 C15.35013812 48.97133978 15.35013812 48.97133978 12.875 50.5625 C9.8125 50.875 9.8125 50.875 6.875 50.5625 C4.875 48.5625 4.875 48.5625 4.64794922 46.68310547 C4.65842285 45.93947754 4.66889648 45.19584961 4.6796875 44.4296875 C4.68613281 43.62402344 4.69257813 42.81835938 4.69921875 41.98828125 C4.71597656 41.14652344 4.73273438 40.30476563 4.75 39.4375 C4.75902344 38.58800781 4.76804688 37.73851562 4.77734375 36.86328125 C4.80094353 34.76290116 4.83681517 32.66266556 4.875 30.5625 C4.215 30.5625 3.555 30.5625 2.875 30.5625 C2.47667969 31.60470703 2.47667969 31.60470703 2.0703125 32.66796875 C0.76896924 35.81926076 -0.71203383 38.83250171 -2.25 41.875 C-3.05824219 43.47794922 -3.05824219 43.47794922 -3.8828125 45.11328125 C-4.49769531 46.32564453 -4.49769531 46.32564453 -5.125 47.5625 C-7.5 47.375 -7.5 47.375 -10.125 46.5625 C-14.86176477 39.55782967 -12.97197363 25.36884584 -11.80419922 17.36328125 C-10.35006036 10.39472276 -7.85775794 1.41439643 0 0 Z " fill="#0C3438" transform="translate(214.125,131.4375)"/>
<path d="M0 0 C1.99954746 -0.04254356 4.00041636 -0.04080783 6 0 C7 1 7 1 7.09765625 3.72265625 C7.08605469 4.82480469 7.07445313 5.92695313 7.0625 7.0625 C7.05347656 8.16722656 7.04445313 9.27195313 7.03515625 10.41015625 C7.02355469 11.26480469 7.01195313 12.11945313 7 13 C7.391875 12.113125 7.78375 11.22625 8.1875 10.3125 C10.11194175 6.7954168 11.88639289 4.52053909 15 2 C17.8125 1.6875 17.8125 1.6875 20 2 C20.99 5.465 20.99 5.465 22 9 C22.70962891 8.24203125 22.70962891 8.24203125 23.43359375 7.46875 C27.02511689 3.94023604 29.61655895 1.49425111 34.8125 1.375 C37.44553145 1.47752512 38.63197292 1.71817746 40.734375 3.328125 C42.88406879 6.16784396 42.41331981 8.57535012 42 12 C39.63026145 15.94956425 37.42679525 17.75141672 33 19 C32.01 19 31.02 19 30 19 C30.99 20.485 30.99 20.485 32 22 C35.94169567 22 38.0155374 21.94837232 40.91796875 19.15234375 C42.11922412 17.7000798 43.28893992 16.22101211 44.421875 14.71484375 C44.94265625 14.14894531 45.4634375 13.58304688 46 13 C46.99 13 47.98 13 49 13 C48.38177183 17.01848311 46.33262004 19.73433194 44 23 C43.505 23.94875 43.01 24.8975 42.5 25.875 C38.8239906 28.99960799 35.56173051 28.69447654 30.859375 28.4765625 C28 28 28 28 24.8125 26 C22.48266175 22.143716 22.22756854 19.47551468 22 15 C20.02 15.33 18.04 15.66 16 16 C15.01 14.02 15.01 14.02 14 12 C9.227773 15.86323138 7.78912365 22.35737925 6 28 C3.625 27.6875 3.625 27.6875 1 27 C0.01 25.515 0.01 25.515 -1 24 C-2.051875 25.2375 -2.051875 25.2375 -3.125 26.5 C-6 29 -6 29 -9.0625 29.6875 C-12 29 -12 29 -14.375 26 C-14.91125 25.01 -15.4475 24.02 -16 23 C-17.051875 24.2375 -17.051875 24.2375 -18.125 25.5 C-21 28 -21 28 -24.0625 28.6875 C-27 28 -27 28 -29.375 25 C-29.91125 24.01 -30.4475 23.02 -31 22 C-31.37769531 22.433125 -31.75539062 22.86625 -32.14453125 23.3125 C-35.72535478 26.93525355 -38.40566005 28.49638492 -43.5625 28.75 C-47.63919413 28.54784988 -49.78365226 27.89008543 -52.6875 25 C-53.450625 24.01 -54.21375 23.02 -55 22 C-55.37769531 22.433125 -55.75539063 22.86625 -56.14453125 23.3125 C-59.73426829 26.94427143 -62.45921609 28.51191988 -67.625 28.8125 C-70.5772953 28.63381913 -72.38142075 28.43101006 -74.81640625 26.734375 C-77.97349873 22.88470097 -78.66329262 19.03252871 -78.35546875 14.140625 C-77.62173055 9.72206971 -75.81923091 6.91561102 -72.875 3.625 C-69.00674758 1.43859646 -65.36143597 1.09340938 -61 2 C-58.23125035 4.09208213 -58.02985331 4.79849017 -57.5 8.375 C-58.12417817 12.90029173 -59.51365458 14.16227699 -63 17 C-66 19 -66 19 -70 19 C-69.67 19.99 -69.34 20.98 -69 22 C-65.42233947 22.33280563 -63.54330598 22.35403609 -60.48828125 20.36328125 C-57.70812152 17.72278418 -56.452527 15.41581773 -54.875 11.9375 C-51.65218048 4.89084867 -51.65218048 4.89084867 -49 3 C-46.44140625 2.3828125 -46.44140625 2.3828125 -43.5625 2.125 C-42.14130859 1.97417969 -42.14130859 1.97417969 -40.69140625 1.8203125 C-37.48455549 2.03441284 -36.24275691 2.73110374 -34 5 C-33.48979272 9.08165827 -33.68638198 10.52957297 -36 14 C-36.99 14 -37.98 14 -39 14 C-39.495 11.525 -39.495 11.525 -40 9 C-43.29075996 9.37904208 -43.29075996 9.37904208 -46 11 C-46.37052339 16.17735677 -46.37052339 16.17735677 -45 21 C-40.69155261 21.4223968 -38.7073874 21.56269452 -35.25 18.8125 C-30.88288138 13.35360173 -29.68569529 9.85695294 -29 3 C-28 2 -28 2 -25.5 1.875 C-23 2 -23 2 -22 3 C-21.92674832 5.86267567 -21.90761795 8.700719 -21.9375 11.5625 C-21.94201172 12.36880859 -21.94652344 13.17511719 -21.95117188 14.00585938 C-21.96299482 16.00393756 -21.98093086 18.00197783 -22 20 C-21.01 20 -20.02 20 -19 20 C-18.81824219 19.3709375 -18.63648438 18.741875 -18.44921875 18.09375 C-16.84447416 12.62938892 -15.06414546 7.30780262 -13 2 C-8.125 2.875 -8.125 2.875 -7 4 C-6.9834089 5.41844613 -7.0366946 6.83787607 -7.12109375 8.25390625 C-7.16943359 9.10791016 -7.21777344 9.96191406 -7.26757812 10.84179688 C-7.32365234 11.73962891 -7.37972656 12.63746094 -7.4375 13.5625 C-7.48970703 14.46419922 -7.54191406 15.36589844 -7.59570312 16.29492188 C-7.72580249 18.5302655 -7.86077936 20.7652089 -8 23 C-7.01 23 -6.02 23 -5 23 C-2.65253315 19.23815982 -2.3836696 15.24788633 -1.9375 10.9375 C-1.11505305 3.34515915 -1.11505305 3.34515915 0 0 Z " fill="#11373B" transform="translate(118,151)"/>
<path d="M0 0 C0.97453125 0.10699219 1.9490625 0.21398437 2.953125 0.32421875 C10.30068636 1.1338434 16.03422956 2.21475512 21 8 C24.25817696 13.49698277 26.01521286 19.17878617 26.31640625 25.546875 C26.35830078 26.39121094 26.40019531 27.23554687 26.44335938 28.10546875 C26.48267578 28.97816406 26.52199219 29.85085937 26.5625 30.75 C26.60568359 31.63816406 26.64886719 32.52632812 26.69335938 33.44140625 C26.79913615 35.62745963 26.90122546 37.81362089 27 40 C23.83884224 38.63016497 23.0072908 38.0109362 21 35 C20.7474935 32.20808159 20.58078737 29.48416871 20.5 26.6875 C20.34664325 21.45983894 20.11535312 16.88331519 18 12 C15.99863756 10.57944932 15.99863756 10.57944932 14 10 C14.474375 10.7425 14.94875 11.485 15.4375 12.25 C17.85887968 16.51162823 18.12052558 19.87585118 18.0625 24.75 C18.05347656 25.73484375 18.04445312 26.7196875 18.03515625 27.734375 C18.02355469 28.48203125 18.01195312 29.2296875 18 30 C17.15695313 30.04898438 16.31390625 30.09796875 15.4453125 30.1484375 C14.34960938 30.22320312 13.25390625 30.29796875 12.125 30.375 C11.03445312 30.44460937 9.94390625 30.51421875 8.8203125 30.5859375 C5.86953526 30.73253491 5.86953526 30.73253491 4 33 C10.93 33.495 10.93 33.495 18 34 C18 34.33 18 34.66 18 35 C7.11 35 -3.78 35 -15 35 C-14.34 36.32 -13.68 37.64 -13 39 C-12.8125 42.1875 -12.8125 42.1875 -13 45 C-14 46 -14 46 -16.75 46.5 C-20 46 -20 46 -21.5078125 44.5078125 C-25 39.69857143 -25 39.69857143 -25 37 C-27.64 37 -30.28 37 -33 37 C-33.33 37.99 -33.66 38.98 -34 40 C-33.625 37.5625 -33.625 37.5625 -33 35 C-32.01 34.505 -32.01 34.505 -31 34 C-32.32 33.34 -33.64 32.68 -35 32 C-32.03 32 -29.06 32 -26 32 C-25.85304688 31.26136719 -25.70609375 30.52273437 -25.5546875 29.76171875 C-22.58440491 16.32716473 -17.27783772 8.02024562 -6.25 0 C-3.4821949 -1.2301356 -2.86200699 -0.77015813 0 0 Z " fill="#11373C" transform="translate(143,21)"/>
<path d="M0 0 C7.70308934 -0.46218536 13.51452772 -0.4112897 20 4 C21.546875 5.0209375 21.546875 5.0209375 23.125 6.0625 C29.29727601 11.52648204 32.60674625 20.05845363 34 28 C34 29.32 34 30.64 34 32 C35.5778125 31.938125 35.5778125 31.938125 37.1875 31.875 C43.05926482 32.06751688 43.05926482 32.06751688 46 34 C48.42237439 40.55904451 49.01622276 47.54187946 49.9375 54.4375 C51.01158977 62.27034872 52.10196346 70.06553652 53.6875 77.8125 C55.15813974 85.20566172 55.68662187 92.47892483 56 100 C53.92227529 100.86772029 51.83756823 101.71873619 49.75 102.5625 C48.58984375 103.03816406 47.4296875 103.51382813 46.234375 104.00390625 C43.13733356 104.95770524 41.92678299 105.20983356 39 104 C39.33 103.34 39.66 102.68 40 102 C40.66 102 41.32 102 42 102 C41.505 89.13 41.505 89.13 41 76 C36.11785113 76.64644661 36.11785113 76.64644661 33 79 C33.48725192 76.24574443 34.10778432 73.66798965 34.97265625 71.00390625 C38.56616189 59.6566716 38.38791999 48.82078402 38 37 C35.03 36.67 32.06 36.34 29 36 C29.66 36.99 30.32 37.98 31 39 C31.25 42.5625 31.25 42.5625 31 46 C29 48 29 48 26.58203125 48.4296875 C24 48 24 48 22.19921875 45.8828125 C21.70035156 44.97273438 21.20148438 44.06265625 20.6875 43.125 C20.17574219 42.22007813 19.66398437 41.31515625 19.13671875 40.3828125 C18 38 18 38 18 36 C13.05 36 8.1 36 3 36 C3.99 34.68 4.98 33.36 6 32 C8.91796875 31.609375 8.91796875 31.609375 12.1875 31.75 C13.27417969 31.78609375 14.36085937 31.8221875 15.48046875 31.859375 C16.31191406 31.90578125 17.14335937 31.9521875 18 32 C17.71657321 29.60293301 17.42356312 27.20768917 17.125 24.8125 C17.04636719 24.13896484 16.96773437 23.46542969 16.88671875 22.77148438 C16.39528587 18.89672516 15.64019099 15.54915277 14 12 C16.375 12.625 16.375 12.625 19 14 C21.46147363 19.48580984 21.3283415 24.91578631 21.30273438 30.81054688 C21.42193806 35.12879638 21.64069004 36.57225005 24.54296875 40.02734375 C25.75919922 41.00380859 25.75919922 41.00380859 27 42 C26.67 41.01 26.34 40.02 26 39 C25.90722381 37.20220358 25.81816343 35.40400901 25.76074219 33.60473633 C25.44523648 24.53815394 24.43344187 16.33697921 18.625 9 C12.2656386 4.15477227 6.81335886 3.40318044 -1 3 C-0.67 2.01 -0.34 1.02 0 0 Z " fill="#063035" transform="translate(143,19)"/>
<path d="M0 0 C3.19356147 0.62482724 3.95340372 1.02443786 5.875 3.5625 C7.21184046 10.35810567 5.89744956 15.90785593 2.24609375 21.6796875 C0.62609417 23.9043023 -0.9629375 25.84776077 -3.125 27.5625 C-3.785 27.5625 -4.445 27.5625 -5.125 27.5625 C-4.795 29.8725 -4.465 32.1825 -4.125 34.5625 C-3.5371875 33.263125 -3.5371875 33.263125 -2.9375 31.9375 C-0.86478557 28.07796279 0.66082069 25.56240069 3.875 22.5625 C6.77865571 21.98616002 8.87446861 22.212438 11.875 22.5625 C12.875 23.5625 12.875 23.5625 12.98852539 25.51196289 C12.98328857 26.3446167 12.97805176 27.17727051 12.97265625 28.03515625 C12.96943359 28.93427734 12.96621094 29.83339844 12.96289062 30.75976562 C12.95451172 31.70529297 12.94613281 32.65082031 12.9375 33.625 C12.93298828 34.57439453 12.92847656 35.52378906 12.92382812 36.50195312 C12.9120011 38.85553065 12.89552025 41.20898477 12.875 43.5625 C14.525 42.5725 16.175 41.5825 17.875 40.5625 C17.37430857 44.94354998 16.09275827 47.51867461 12.875 50.5625 C9.75 51 9.75 51 6.875 50.5625 C4.875 48.5625 4.875 48.5625 4.64794922 46.68310547 C4.65842285 45.93947754 4.66889648 45.19584961 4.6796875 44.4296875 C4.68613281 43.62402344 4.69257813 42.81835938 4.69921875 41.98828125 C4.71597656 41.14652344 4.73273438 40.30476563 4.75 39.4375 C4.75902344 38.58800781 4.76804688 37.73851562 4.77734375 36.86328125 C4.80094353 34.76290116 4.83681517 32.66266556 4.875 30.5625 C4.215 30.5625 3.555 30.5625 2.875 30.5625 C2.47667969 31.60470703 2.47667969 31.60470703 2.0703125 32.66796875 C0.76896924 35.81926076 -0.71203383 38.83250171 -2.25 41.875 C-3.05824219 43.47794922 -3.05824219 43.47794922 -3.8828125 45.11328125 C-4.49769531 46.32564453 -4.49769531 46.32564453 -5.125 47.5625 C-7.5 47.375 -7.5 47.375 -10.125 46.5625 C-14.86176477 39.55782967 -12.97197363 25.36884584 -11.80419922 17.36328125 C-10.35006036 10.39472276 -7.85775794 1.41439643 0 0 Z " fill="#0E3539" transform="translate(214.125,131.4375)"/>
<path d="M0 0 C3.1875 1.5625 3.1875 1.5625 5 4 C6 7.5 6 7.5 6 11 C4.5625 13.4375 4.5625 13.4375 3 15 C0.525 14.505 0.525 14.505 -2 14 C-2.33 11.69 -2.66 9.38 -3 7 C-5.64 7 -8.28 7 -11 7 C-12.47896861 9.95793723 -12.4355582 11.70220224 -12 15 C-9.45977651 19.0371409 -5.95510226 22.10241515 -2.3125 25.125 C1.95998663 28.71691354 3.80401859 31.23616733 4.4375 36.9375 C4.25126393 41.22902681 2.86985359 43.7525341 0 47 C-4.75573448 50.31795429 -9.37030586 50.78045667 -15 50 C-17.875 48.6875 -17.875 48.6875 -20 47 C-20.598125 46.566875 -21.19625 46.13375 -21.8125 45.6875 C-23.62135217 43.11702587 -23.3244973 41.05027461 -23 38 C-22.34 37.34 -21.68 36.68 -21 36 C-18.5625 36.0625 -18.5625 36.0625 -16 37 C-15.525625 37.845625 -15.05125 38.69125 -14.5625 39.5625 C-14.046875 40.366875 -13.53125 41.17125 -13 42 C-9.84010585 42.38692581 -7.86120256 42.43060128 -5 41 C-4.53399631 37.65748259 -4.1959236 35.08774179 -6.28027344 32.26806641 C-8.08284087 30.5256531 -9.94101866 28.90775076 -11.875 27.3125 C-13.1686051 26.20973367 -14.45784394 25.10182036 -15.7421875 23.98828125 C-16.3182373 23.50915283 -16.89428711 23.03002441 -17.48779297 22.53637695 C-20.39971847 19.57790953 -20.97534019 17.25481805 -21.375 13.125 C-21.25402647 8.79414779 -19.84802823 6.30987065 -17 3 C-11.59023548 -0.91067315 -6.45771897 -0.78600176 0 0 Z " fill="#12393E" transform="translate(32,134)"/>
<path d="M0 0 C3.1875 1.5625 3.1875 1.5625 5 4 C5.9375 7.5625 5.9375 7.5625 6 11 C5.01 12.485 5.01 12.485 4 14 C1.375 14.1875 1.375 14.1875 -1 14 C-1.66 11.69 -2.32 9.38 -3 7 C-6.41656024 6.83322718 -6.41656024 6.83322718 -10 7 C-12.36563709 8.9030088 -12.36563709 8.9030088 -12.05859375 12.17578125 C-10.63393641 17.32242161 -7.93552889 19.66761151 -4.0625 23.1875 C-2.77822881 24.38470195 -1.49811473 25.58638238 -0.22265625 26.79296875 C0.34702881 27.3139917 0.91671387 27.83501465 1.50366211 28.37182617 C3.94893768 31.03254452 4.90921276 33.30396451 5.375 36.875 C4.74436595 42.13028371 2.17318241 44.98679701 -1.75 48.375 C-6.30972277 50.65486139 -10.14666626 50.79006651 -14.9609375 49.45703125 C-18.66233512 48.04362836 -21.21224402 46.57551195 -23 43 C-23.3125 40.375 -23.3125 40.375 -23 38 C-21 36 -21 36 -18.375 35.875 C-17.59125 35.91625 -16.8075 35.9575 -16 36 C-15.01 37.98 -14.02 39.96 -13 42 C-8.85906302 42.20970559 -8.85906302 42.20970559 -5 41 C-4.30450573 35.88542761 -4.30450573 35.88542761 -6.17041016 31.31152344 C-7.81850094 29.72759066 -9.51759967 28.29031992 -11.3125 26.875 C-15.69993395 23.29089902 -18.95395513 20.47835928 -21 15 C-21.41696747 10.80758161 -20.41608648 7.65999924 -18.1875 4.125 C-12.90690072 -1.00472501 -7.04418456 -0.76023303 0 0 Z " fill="#12393D" transform="translate(193,134)"/>
<path d="M0 0 C0.53109375 0.30679688 1.0621875 0.61359375 1.609375 0.9296875 C4.48140083 2.21552913 7.14230539 2.65208995 10.25 3.125 C11.32765625 3.29257813 12.4053125 3.46015625 13.515625 3.6328125 C14.74539062 3.81457031 14.74539062 3.81457031 16 4 C16.92863739 13.32764668 14.41298926 21.23874972 8.953125 28.85546875 C8.30859375 29.56316406 7.6640625 30.27085938 7 31 C6.34 31 5.68 31 5 31 C5 31.66 5 32.32 5 33 C3.02 32.67 1.04 32.34 -1 32 C-1 31.34 -1 30.68 -1 30 C-1.556875 29.814375 -2.11375 29.62875 -2.6875 29.4375 C-7.46511902 26.46762872 -10.28453651 21.25555634 -12 16 C-12.1953125 13.10546875 -12.1953125 13.10546875 -12.125 10.1875 C-12.10695312 9.21167969 -12.08890625 8.23585938 -12.0703125 7.23046875 C-12.04710937 6.49441406 -12.02390625 5.75835937 -12 5 C-11.07767578 4.70996094 -11.07767578 4.70996094 -10.13671875 4.4140625 C-9.32847656 4.15367188 -8.52023438 3.89328125 -7.6875 3.625 C-6.88699219 3.36976562 -6.08648437 3.11453125 -5.26171875 2.8515625 C-2.77275472 2.01168189 -2.77275472 2.01168189 0 0 Z " fill="#237958" transform="translate(144,70)"/>
<path d="M0 0 C0.721875 0.103125 1.44375 0.20625 2.1875 0.3125 C2.8475 2.6225 3.5075 4.9325 4.1875 7.3125 C4.66058594 6.8071875 5.13367188 6.301875 5.62109375 5.78125 C9.21261689 2.25273604 11.80405895 -0.19324889 17 -0.3125 C19.63303145 -0.20997488 20.81947292 0.03067746 22.921875 1.640625 C25.07156879 4.48034396 24.60081981 6.88785012 24.1875 10.3125 C21.81776145 14.26206425 19.61429525 16.06391672 15.1875 17.3125 C14.1975 17.3125 13.2075 17.3125 12.1875 17.3125 C12.8475 18.3025 13.5075 19.2925 14.1875 20.3125 C18.12919567 20.3125 20.2030374 20.26087232 23.10546875 17.46484375 C24.30672412 16.0125798 25.47643992 14.53351211 26.609375 13.02734375 C27.13015625 12.46144531 27.6509375 11.89554688 28.1875 11.3125 C29.1775 11.3125 30.1675 11.3125 31.1875 11.3125 C30.56927183 15.33098311 28.52012004 18.04683194 26.1875 21.3125 C25.6925 22.26125 25.1975 23.21 24.6875 24.1875 C21.0114906 27.31210799 17.74923051 27.00697654 13.046875 26.7890625 C10.1875 26.3125 10.1875 26.3125 7 24.3125 C4.67016175 20.456216 4.41506854 17.78801468 4.1875 13.3125 C2.2075 13.6425 0.2275 13.9725 -1.8125 14.3125 C-2.4725 12.9925 -3.1325 11.6725 -3.8125 10.3125 C-6.15308637 12.44030579 -7.51950306 14.42812221 -8.8125 17.3125 C-10.1325 16.9825 -11.4525 16.6525 -12.8125 16.3125 C-12.8125 13.6725 -12.8125 11.0325 -12.8125 8.3125 C-11.8225 9.7975 -11.8225 9.7975 -10.8125 11.3125 C-10.420625 10.425625 -10.02875 9.53875 -9.625 8.625 C-7.27381842 4.32801298 -5.1452184 0.57169093 0 0 Z " fill="#153A3E" transform="translate(135.8125,152.6875)"/>
<path d="M0 0 C3.25 0.9375 3.25 0.9375 6 2 C7.66088045 2.36106097 9.32618981 2.70462173 11 3 C11.33 4.65 11.66 6.3 12 8 C10.02 8 8.04 8 6 8 C6.05800781 8.72445312 6.11601562 9.44890625 6.17578125 10.1953125 C6.59036991 19.07935525 6.59036991 19.07935525 3.75 22.5625 C0.04373229 25.84760093 -1.56188906 26.84591668 -6.5 27.375 C-10 27 -10 27 -12.4375 25.125 C-14 23 -14 23 -14 21 C-15.65 21.33 -17.3 21.66 -19 22 C-13.32891175 -1.37175764 -13.32891175 -1.37175764 0 0 Z " fill="#12393D" transform="translate(248,152)"/>
<path d="M0 0 C7.70308934 -0.46218536 13.51452772 -0.4112897 20 4 C21.546875 5.0209375 21.546875 5.0209375 23.125 6.0625 C29.29727601 11.52648204 32.60674625 20.05845363 34 28 C34 29.32 34 30.64 34 32 C35.0725 31.95875 36.145 31.9175 37.25 31.875 C40.77723487 31.9925745 42.061073 32.34847907 45 34 C44.34773438 34.06058594 43.69546875 34.12117188 43.0234375 34.18359375 C38.31283783 34.63519991 33.65798362 35.14195039 29 36 C29.66 36.99 30.32 37.98 31 39 C31.25 42.5625 31.25 42.5625 31 46 C29 48 29 48 26.58203125 48.4296875 C24 48 24 48 22.19921875 45.8828125 C21.70035156 44.97273438 21.20148438 44.06265625 20.6875 43.125 C20.17574219 42.22007813 19.66398437 41.31515625 19.13671875 40.3828125 C18 38 18 38 18 36 C13.05 36 8.1 36 3 36 C3.99 34.68 4.98 33.36 6 32 C8.91796875 31.609375 8.91796875 31.609375 12.1875 31.75 C13.27417969 31.78609375 14.36085937 31.8221875 15.48046875 31.859375 C16.31191406 31.90578125 17.14335937 31.9521875 18 32 C17.71657321 29.60293301 17.42356312 27.20768917 17.125 24.8125 C17.04636719 24.13896484 16.96773437 23.46542969 16.88671875 22.77148438 C16.39528587 18.89672516 15.64019099 15.54915277 14 12 C16.375 12.625 16.375 12.625 19 14 C21.46147363 19.48580984 21.3283415 24.91578631 21.30273438 30.81054688 C21.42193806 35.12879638 21.64069004 36.57225005 24.54296875 40.02734375 C25.75919922 41.00380859 25.75919922 41.00380859 27 42 C26.67 41.01 26.34 40.02 26 39 C25.90722381 37.20220358 25.81816343 35.40400901 25.76074219 33.60473633 C25.44523648 24.53815394 24.43344187 16.33697921 18.625 9 C12.2656386 4.15477227 6.81335886 3.40318044 -1 3 C-0.67 2.01 -0.34 1.02 0 0 Z " fill="#163B3F" transform="translate(143,19)"/>
<path d="M0 0 C3.36216388 1.8211721 4.58395593 3.18772349 6.3125 6.5625 C7 10 7 10 7 21 C-2.24 21 -11.48 21 -21 21 C-21 13.56939338 -19.95567583 10.03319257 -16 4 C-11.2982144 -0.59244174 -6.28759524 -1.02868837 0 0 Z " fill="#F0F4F4" transform="translate(154,30)"/>
<path d="M0 0 C6.33145311 4.2565387 8.8590553 10.73831985 10.4609375 17.96484375 C10.60222868 19.4775498 10.70556567 20.99412503 10.77734375 22.51171875 C10.81923828 23.35605469 10.86113281 24.20039062 10.90429688 25.0703125 C10.94361328 25.94300781 10.98292969 26.81570312 11.0234375 27.71484375 C11.06662109 28.60300781 11.10980469 29.49117187 11.15429688 30.40625 C11.26007365 32.59230338 11.36216296 34.77846464 11.4609375 36.96484375 C8.29977974 35.59500872 7.4682283 34.97577995 5.4609375 31.96484375 C5.23358181 29.21643007 5.095506 26.5291838 5.0234375 23.77734375 C4.61300641 13.24083315 4.61300641 13.24083315 -0.9140625 4.46484375 C-6.43821241 2.17898861 -11.64752302 2.23498509 -17.5390625 2.96484375 C-23.69319215 5.76217541 -28.58334392 11.42182274 -31.3515625 17.58984375 C-33.80695472 24.56832689 -34.59698228 31.76212452 -32.5390625 38.96484375 C-36.0969824 37.77887045 -36.81217205 37.25415889 -38.5390625 33.96484375 C-40.03225661 26.38648223 -37.19549635 19.503908 -33.5390625 12.96484375 C-25.47552236 1.789329 -14.21473952 -5.79523996 0 0 Z " fill="#D1DBDB" transform="translate(158.5390625,24.03515625)"/>
<path d="M0 0 C3 0.375 3 0.375 4.65625 1.578125 C7.41533307 5.26759655 6.62741226 10.01797045 6 14.375 C4.03540377 19.59833126 1.62333677 23.21374409 -3 26.375 C-4.70884005 24.75160195 -6.37446717 23.08180947 -8 21.375 C-8 20.715 -8 20.055 -8 19.375 C-8.99 19.375 -9.98 19.375 -11 19.375 C-10.51681193 12.61036709 -9.01828908 6.93984413 -4.5546875 1.66796875 C-3 0.375 -3 0.375 0 0 Z " fill="#13393C" transform="translate(214,131.625)"/>
<path d="M0 0 C4.62 0.66 9.24 1.32 14 2 C14.69505515 11.45274999 12.51651519 19.09432709 6.953125 26.85546875 C6.30859375 27.56316406 5.6640625 28.27085938 5 29 C4.34 29 3.68 29 3 29 C3 29.66 3 30.32 3 31 C1.68 31 0.36 31 -1 31 C-1 30.34 -1 29.68 -1 29 C-0.34 29 0.32 29 1 29 C0.690625 28.505 0.38125 28.01 0.0625 27.5 C-1.13651156 24.67879634 -1.4636021 22.00732816 -1.78125 18.97265625 C-2.04278708 16.61415223 -2.49313377 14.31710275 -3 12 C-1.35 11.67 0.3 11.34 2 11 C2.87867729 14.73437848 3.08912219 18.16774573 3 22 C5.63365987 17.0778687 7.64475824 12.42096702 9 7 C7.88625 6.87625 6.7725 6.7525 5.625 6.625 C2 6 2 6 0 4 C0 2.68 0 1.36 0 0 Z " fill="#194042" transform="translate(146,72)"/>
<path d="M0 0 C1.74690919 0.2143934 3.4974023 0.40107653 5.25 0.5625 C6.14203125 0.64628906 7.0340625 0.73007812 7.953125 0.81640625 C8.62859375 0.87699219 9.3040625 0.93757813 10 1 C10 1.33 10 1.66 10 2 C8.96552734 2.02126953 8.96552734 2.02126953 7.91015625 2.04296875 C-1.15218257 2.50292285 -7.40188346 4.99548289 -13.75 11.5625 C-19.6556179 18.80781826 -22.21719102 28.21218217 -25 37 C-27.64 37 -30.28 37 -33 37 C-33.33 37.99 -33.66 38.98 -34 40 C-33.625 37.5625 -33.625 37.5625 -33 35 C-32.01 34.505 -32.01 34.505 -31 34 C-32.32 33.34 -33.64 32.68 -35 32 C-32.03 32 -29.06 32 -26 32 C-25.85304688 31.26136719 -25.70609375 30.52273437 -25.5546875 29.76171875 C-22.58440491 16.32716473 -17.27783772 8.02024562 -6.25 0 C-3.49964102 -1.22238177 -2.83270843 -0.77393641 0 0 Z " fill="#17393B" transform="translate(143,21)"/>
<path d="M0 0 C0.99 0.33 1.98 0.66 3 1 C1.94513949 7.12096691 0.34782974 11.75506674 -3 17 C-3.33 17 -3.66 17 -4 17 C-4 13.37 -4 9.74 -4 6 C-5.32 6 -6.64 6 -8 6 C-7.67 9.63 -7.34 13.26 -7 17 C-10.73066922 14.34926135 -12.82689955 12.4791108 -14 8 C-14.125 4.6875 -14.125 4.6875 -14 2 C-12.68 2 -11.36 2 -10 2 C-10 1.34 -10 0.68 -10 0 C-6.78455056 -1.60772472 -3.42887101 -0.61108592 0 0 Z " fill="#E1EAEA" transform="translate(152,78)"/>
<path d="M0 0 C0.33 0 0.66 0 1 0 C1 11.88 1 23.76 1 36 C0.34 36 -0.32 36 -1 36 C-1 30.06 -1 24.12 -1 18 C-2.65 19.65 -4.3 21.3 -6 23 C-6.556875 22.690625 -7.11375 22.38125 -7.6875 22.0625 C-10.12827986 20.94106061 -12.36817818 20.48446471 -15 20 C-14.07544441 18.491987 -13.1349253 16.99375083 -12.1875 15.5 C-11.66542969 14.6646875 -11.14335937 13.829375 -10.60546875 12.96875 C-10.07566406 12.3190625 -9.54585937 11.669375 -9 11 C-8.01 11 -7.02 11 -6 11 C-5.319375 10.649375 -4.63875 10.29875 -3.9375 9.9375 C-3.298125 9.628125 -2.65875 9.31875 -2 9 C-1.34 9.33 -0.68 9.66 0 10 C0 6.7 0 3.4 0 0 Z " fill="#4C6B6E" transform="translate(184,85)"/>
<path d="M0 0 C0.66 0 1.32 0 2 0 C3.25678024 10.04999122 3.11379149 20.08114108 3.0625 30.1875 C3.05747379 31.91992058 3.05291287 33.65234257 3.04882812 35.38476562 C3.03791402 39.58987928 3.02071152 43.79492366 3 48 C2.67 48 2.34 48 2 48 C1.67 39.42 1.34 30.84 1 22 C-3.88214887 22.64644661 -3.88214887 22.64644661 -7 25 C-6.09413402 20.01773711 -4.784246 15.14481189 -3.5 10.25 C-3.27441406 9.37472656 -3.04882812 8.49945313 -2.81640625 7.59765625 C-2.48962891 6.35048828 -2.48962891 6.35048828 -2.15625 5.078125 C-1.95837891 4.31918945 -1.76050781 3.56025391 -1.55664062 2.77832031 C-1 1 -1 1 0 0 Z " fill="#1C4146" transform="translate(183,73)"/>
<path d="M0 0 C1.32 0.33 2.64 0.66 4 1 C5.89919217 6.68985622 6.40686558 11.96152572 6.625 17.9375 C6.66367188 18.81212891 6.70234375 19.68675781 6.7421875 20.58789062 C6.8356107 22.72494631 6.91885398 24.86244294 7 27 C3.83884224 25.63016497 3.0072908 25.0109362 1 22 C0.68115234 19.63989258 0.68115234 19.63989258 0.5859375 16.89453125 C0.54726562 15.91162109 0.50859375 14.92871094 0.46875 13.91601562 C0.4378125 12.89185547 0.406875 11.86769531 0.375 10.8125 C0.33632812 9.77673828 0.29765625 8.74097656 0.2578125 7.67382812 C0.16351704 5.11606378 0.07791798 2.55830713 0 0 Z " fill="#DFE7E8" transform="translate(163,34)"/>
<path d="M0 0 C2 1 2 1 3 3.9375 C3.33 4.948125 3.66 5.95875 4 7 C4.66 7.66 5.32 8.32 6 9 C5.26160754 10.44349674 4.50873357 11.87959051 3.75 13.3125 C3.33234375 14.11300781 2.9146875 14.91351563 2.484375 15.73828125 C0.91343217 18.13190204 -0.6267037 19.43301591 -3 21 C-3.66 20.34 -4.32 19.68 -5 19 C-4.01282051 4.01282051 -4.01282051 4.01282051 0 0 Z " fill="#3F5D60" transform="translate(214,137)"/>
<path d="M0 0 C2.4375 0.8125 2.4375 0.8125 5 2 C5.96088383 4.88265149 6.11670941 6.67662271 6.09765625 9.66796875 C6.09443359 10.56064453 6.09121094 11.45332031 6.08789062 12.37304688 C6.07951172 13.30181641 6.07113281 14.23058594 6.0625 15.1875 C6.05798828 16.12787109 6.05347656 17.06824219 6.04882812 18.03710938 C6.03704645 20.35810008 6.01911114 22.67905807 6 25 C0.39 24.67 -5.22 24.34 -11 24 C-10.01 22.68 -9.02 21.36 -8 20 C-5.08203125 19.609375 -5.08203125 19.609375 -1.8125 19.75 C-0.72582031 19.78609375 0.36085937 19.8221875 1.48046875 19.859375 C2.31191406 19.90578125 3.14335937 19.9521875 4 20 C3.71657321 17.60293301 3.42356312 15.20768917 3.125 12.8125 C3.04636719 12.13896484 2.96773437 11.46542969 2.88671875 10.77148438 C2.39528587 6.89672516 1.64019099 3.54915277 0 0 Z " fill="#0E3439" transform="translate(157,31)"/>
<path d="M0 0 C0.763125 0.0825 1.52625 0.165 2.3125 0.25 C3.74554064 3.11608129 3.61894155 5.06300783 3.3125 8.25 C1.625 11.625 1.625 11.625 -0.6875 14.25 C-3.33203125 14.4140625 -3.33203125 14.4140625 -5.6875 14.25 C-5.76903933 12.66753293 -5.82693557 11.08383727 -5.875 9.5 C-5.90980469 8.61828125 -5.94460938 7.7365625 -5.98046875 6.828125 C-5.51804293 2.75877775 -4.19874253 0.3905807 0 0 Z " fill="#E0E8E8" transform="translate(272.6875,158.75)"/>
<path d="M0 0 C0.66 0 1.32 0 2 0 C2 0.66 2 1.32 2 2 C3.65 2.33 5.3 2.66 7 3 C7.36630156 6.93774177 7.30233203 8.56539771 5 11.875 C4.34 12.57625 3.68 13.2775 3 14 C-0.875 13.125 -0.875 13.125 -2 12 C-2.1245486 10.35769636 -2.17568524 8.70947724 -2.1875 7.0625 C-2.20167969 6.16660156 -2.21585938 5.27070313 -2.23046875 4.34765625 C-2 2 -2 2 0 0 Z " fill="#E4ECEB" transform="translate(242,159)"/>
<path d="M0 0 C0.66 0 1.32 0 2 0 C1.09326425 6.60621762 1.09326425 6.60621762 0.4375 9.375 C-0.43609211 14.61655267 -0.46418918 19.87533787 1 25 C-2.5579199 23.8140267 -3.27310955 23.28931514 -5 20 C-6.19083583 13.05345767 -4.05543001 7.18448483 -1 1 C-0.67 0.67 -0.34 0.34 0 0 Z " fill="#E3EBEC" transform="translate(125,38)"/>
<path d="M0 0 C-0.5390625 1.86328125 -0.5390625 1.86328125 -2 4 C-4.51518067 4.92773058 -6.78262146 5.60568777 -9.375 6.1875 C-10.04789063 6.35185547 -10.72078125 6.51621094 -11.4140625 6.68554688 C-13.27276033 7.13741534 -15.1362514 7.56943769 -17 8 C-18.33407269 8.33036185 -19.66788092 8.6618467 -21 9 C-21.33 7.68 -21.66 6.36 -22 5 C-19.08503169 4.1602972 -16.1682814 3.32803997 -13.25 2.5 C-12.0125 2.14228516 -12.0125 2.14228516 -10.75 1.77734375 C-9.95078125 1.55175781 -9.1515625 1.32617188 -8.328125 1.09375 C-7.5949707 0.88427734 -6.86181641 0.67480469 -6.10644531 0.45898438 C-4 0 -4 0 0 0 Z " fill="#315355" transform="translate(81,94)"/>
<path d="M0 0 C-0.1875 1.875 -0.1875 1.875 -1 4 C-3 5.0625 -3 5.0625 -6 6 C-6.69996094 6.2475 -7.39992187 6.495 -8.12109375 6.75 C-12.3953361 8.24922835 -16.48715455 9.42143007 -21 10 C-21 9.01 -21 8.02 -21 7 C-18.44225544 5.82181449 -15.87965758 4.65734345 -13.3125 3.5 C-12.59126953 3.16613281 -11.87003906 2.83226563 -11.12695312 2.48828125 C-7.28539628 0.76922841 -4.30557312 -0.47556626 0 0 Z " fill="#3B5B5C" transform="translate(233,67)"/>
<path d="M0 0 C0.33 0.99 0.66 1.98 1 3 C6.28 3 11.56 3 17 3 C16.01 4.485 16.01 4.485 15 6 C21.93 6.495 21.93 6.495 29 7 C29 7.33 29 7.66 29 8 C20.42 8 11.84 8 3 8 C3.66 7.34 4.32 6.68 5 6 C2.525 5.01 2.525 5.01 0 4 C0 2.68 0 1.36 0 0 Z " fill="#587476" transform="translate(132,48)"/>
<path d="M0 0 C8.01952421 1.008964 14.11603868 3.8382135 21 8 C21 8.99 21 9.98 21 11 C13.47278482 9.28690965 6.56336057 5.99508904 0 2 C0 1.34 0 0.68 0 0 Z " fill="#6B8383" transform="translate(208,91)"/>
<path d="M0 0 C1.74690919 0.2143934 3.4974023 0.40107653 5.25 0.5625 C6.14203125 0.64628906 7.0340625 0.73007812 7.953125 0.81640625 C8.62859375 0.87699219 9.3040625 0.93757813 10 1 C10 1.33 10 1.66 10 2 C9.31035156 2.01417969 8.62070313 2.02835938 7.91015625 2.04296875 C0.75189773 2.40628228 -4.06398955 4.03029301 -10 8 C-13 10 -13 10 -15.1875 9.625 C-15.785625 9.41875 -16.38375 9.2125 -17 9 C-5.42616487 -1.48250576 -5.42616487 -1.48250576 0 0 Z " fill="#466365" transform="translate(143,21)"/>
<path d="M0 0 C1.66519519 0.34060811 3.33157466 0.67558396 5 1 C5 1.33 5 1.66 5 2 C4.34773438 2.02578125 3.69546875 2.0515625 3.0234375 2.078125 C-3.69659567 2.51423335 -7.88276358 3.64297616 -12.625 8.75 C-13.66970505 9.95542891 -14.69744586 11.17588765 -15.703125 12.4140625 C-17 14 -17 14 -19 16 C-19 15.34 -19 14.68 -19 14 C-19.66 13.67 -20.32 13.34 -21 13 C-8.14714437 -2.59003785 -8.14714437 -2.59003785 0 0 Z " fill="#D0DBDC" transform="translate(146,24)"/>
<path d="M0 0 C6.875 0.875 6.875 0.875 8 2 C8.26293056 6.03160191 8.29404844 7.55892734 6 11 C5.01 11 4.02 11 3 11 C2.67 8.69 2.34 6.38 2 4 C0.68 4 -0.64 4 -2 4 C-1.34 2.68 -0.68 1.36 0 0 Z " fill="#0F3438" transform="translate(76,154)"/>
<path d="M0 0 C1.32 0.33 2.64 0.66 4 1 C2.6537371 5.40595131 0.93896005 7.58291088 -3 10 C-6.3125 10.25 -6.3125 10.25 -9 10 C-9.33 8.68 -9.66 7.36 -10 6 C-9.36191406 5.81824219 -8.72382812 5.63648438 -8.06640625 5.44921875 C-7.24011719 5.19785156 -6.41382813 4.94648438 -5.5625 4.6875 C-4.32693359 4.32205078 -4.32693359 4.32205078 -3.06640625 3.94921875 C-2.38449219 3.63597656 -1.70257813 3.32273438 -1 3 C-0.67 2.01 -0.34 1.02 0 0 Z " fill="#CDD8D9" transform="translate(58,164)"/>
<path d="M0 0 C0.61875 0.804375 1.2375 1.60875 1.875 2.4375 C3.74164041 5.03874519 3.74164041 5.03874519 6 6 C5.25 12.75 5.25 12.75 3 15 C2.34 13.68 1.68 12.36 1 11 C0.01 11 -0.98 11 -2 11 C-1.125 3.375 -1.125 3.375 0 0 Z " fill="#2F4F53" transform="translate(205,140)"/>
<path d="M0 0 C1.65 0 3.3 0 5 0 C5 0.66 5 1.32 5 2 C3.68 2 2.36 2 1 2 C1.99264182 8.94849273 3.90754908 12.78043344 8.5390625 18.0546875 C10 20 10 20 10 23 C8 22 6 21 4 20 C4 19.34 4 18.68 4 18 C3.34 18 2.68 18 2 18 C0.176679 11.84629161 -0.2361959 6.40353322 0 0 Z " fill="#2C8561" transform="translate(137,78)"/>
<path d="M0 0 C0 1.32 0 2.64 0 4 C-5.94 4 -11.88 4 -18 4 C-18 3.01 -18 2.02 -18 1 C-11.96445452 0.30739642 -6.07593562 -0.11251733 0 0 Z " fill="#5A7577" transform="translate(232,82)"/>
<path d="M0 0 C1.67542976 0.28604898 3.34385343 0.61781233 5 1 C4.83628906 1.68449219 4.67257813 2.36898437 4.50390625 3.07421875 C3.93552966 6.3743278 3.90369233 9.46554069 3.9375 12.8125 C3.95103516 14.55466797 3.95103516 14.55466797 3.96484375 16.33203125 C3.97644531 17.21246094 3.98804688 18.09289062 4 19 C3.01 18.67 2.02 18.34 1 18 C1.66 18 2.32 18 3 18 C2.690625 17.505 2.38125 17.01 2.0625 16.5 C0.8628234 13.67723153 0.53430916 11.00594923 0.22265625 7.96875 C0.01247029 5.82561547 0.01247029 5.82561547 -0.625 3.0625 C-0.74875 2.381875 -0.8725 1.70125 -1 1 C-0.67 0.67 -0.34 0.34 0 0 Z " fill="#0D3434" transform="translate(144,83)"/>
<path d="M0 0 C0.33 0 0.66 0 1 0 C1.33 1.65 1.66 3.3 2 5 C2.99 5 3.98 5 5 5 C4.67 9.29 4.34 13.58 4 18 C3.01 16.68 2.02 15.36 1 14 C0.67 15.65 0.34 17.3 0 19 C-0.33 19 -0.66 19 -1 19 C-0.67 12.73 -0.34 6.46 0 0 Z " fill="#3D5D60" transform="translate(101,89)"/>
<path d="M0 0 C0.66 0 1.32 0 2 0 C2.10957031 0.80824219 2.21914062 1.61648437 2.33203125 2.44921875 C2.49058594 3.51785156 2.64914063 4.58648437 2.8125 5.6875 C2.96332031 6.74324219 3.11414063 7.79898438 3.26953125 8.88671875 C4.02572561 12.10964336 5.23102148 14.23263908 7 17 C7 17.66 7 18.32 7 19 C7.66 19 8.32 19 9 19 C9 19.66 9 20.32 9 21 C10.32 21.66 11.64 22.32 13 23 C13 23.66 13 24.32 13 25 C12.34 25 11.68 25 11 25 C11 24.34 11 23.68 11 23 C10.443125 22.814375 9.88625 22.62875 9.3125 22.4375 C4.72963216 19.58869026 1.35580519 14.17671073 0 9 C-0.14762486 5.99150724 -0.11800009 3.00900229 0 0 Z " fill="#215949" transform="translate(132,77)"/>
<path d="M0 0 C5.26609558 0.97520289 9.48593706 1.99062471 14 5 C15.65369357 5.69822617 17.31727014 6.37498605 19 7 C19 7.66 19 8.32 19 9 C14.71620357 8.28739906 10.74906147 6.93078264 6.6875 5.4375 C6.04232422 5.20353516 5.39714844 4.96957031 4.73242188 4.72851562 C3.15378781 4.15552993 1.57672974 3.57820536 0 3 C0 2.01 0 1.02 0 0 Z " fill="#61797A" transform="translate(64,66)"/>
<path d="M0 0 C0.33 0.99 0.66 1.98 1 3 C3.31 3 5.62 3 8 3 C8 3.33 8 3.66 8 4 C6.96875 4 5.9375 4 4.875 4 C1.24711286 4.50039823 -0.12067589 5.87086315 -2.3125 8.75 C-4.30573352 11.70530089 -5.93025104 14.57680333 -7 18 C-7.33 18 -7.66 18 -8 18 C-8.3618951 14.92389165 -8.51579329 12.06381217 -8 9 C-6.23995628 6.81624205 -4.33744395 5.63621076 -2 4 C-0.62745412 1.85019503 -0.62745412 1.85019503 0 0 Z " fill="#BECBCC" transform="translate(217,150)"/>
<path d="M0 0 C0.66 0.33 1.32 0.66 2 1 C1.70887831 7.41923331 0.54784971 11.62100206 -3 17 C-4.15903767 13.53110711 -3.85595132 10.94327972 -3.1875 7.375 C-3.01605469 6.41335937 -2.84460938 5.45171875 -2.66796875 4.4609375 C-2 2 -2 2 0 0 Z " fill="#D3DEDF" transform="translate(214,137)"/>
<path d="M0 0 C0.99 0.33 1.98 0.66 3 1 C2.34 2.98 1.68 4.96 1 7 C-1.64 7 -4.28 7 -7 7 C-7.33 7.99 -7.66 8.98 -8 10 C-7.625 7.5625 -7.625 7.5625 -7 5 C-6.34 4.67 -5.68 4.34 -5 4 C-6.32 3.34 -7.64 2.68 -9 2 C-6.03 2 -3.06 2 0 2 C0 1.34 0 0.68 0 0 Z " fill="#325458" transform="translate(117,51)"/>
<path d="M0 0 C1.93742341 -0.02703381 3.87495479 -0.04641125 5.8125 -0.0625 C6.89144531 -0.07410156 7.97039062 -0.08570312 9.08203125 -0.09765625 C12 0 12 0 15 1 C14.67 1.99 14.34 2.98 14 4 C9.05 3.67 4.1 3.34 -1 3 C-0.67 2.01 -0.34 1.02 0 0 Z " fill="#26474A" transform="translate(143,19)"/>
<path d="M0 0 C6.09781001 -0.22084624 11.21642935 -0.01167675 17 2 C17 2.33 17 2.66 17 3 C11.39 3 5.78 3 0 3 C0 2.01 0 1.02 0 0 Z " fill="#2F4F51" transform="translate(62,81)"/>
<path d="M0 0 C0.33 0.99 0.66 1.98 1 3 C8.92 2.505 8.92 2.505 17 2 C14.03 1.505 14.03 1.505 11 1 C11 0.67 11 0.34 11 0 C12.258125 -0.020625 13.51625 -0.04125 14.8125 -0.0625 C15.52019531 -0.07410156 16.22789063 -0.08570312 16.95703125 -0.09765625 C19 0 19 0 22 1 C21.67 1.99 21.34 2.98 21 4 C14.07 4 7.14 4 0 4 C0 2.68 0 1.36 0 0 Z " fill="#BECACB" transform="translate(61,81)"/>
<path d="M0 0 C2.125 0.375 2.125 0.375 4 1 C3.61402985 3.79828356 3.19863427 4.8205884 1.0625 6.75 C-1 8 -1 8 -3 8 C-2.25 2.25 -2.25 2.25 0 0 Z " fill="#CED9D9" transform="translate(51,158)"/>
<path d="M0 0 C0.99 0.33 1.98 0.66 3 1 C3.06058594 1.59167969 3.12117187 2.18335937 3.18359375 2.79296875 C3.62012371 6.90978208 4.08671346 10.95544533 5 15 C1.95601671 12.15240273 0.11001599 10.30153445 -0.09765625 5.95703125 C-0.06510417 3.97135417 -0.03255208 1.98567708 0 0 Z " fill="#098450" transform="translate(134,78)"/>
<path d="M0 0 C1.258125 0.12375 2.51625 0.2475 3.8125 0.375 C4.87404297 0.47941406 4.87404297 0.47941406 5.95703125 0.5859375 C8 1 8 1 11 3 C11 3.99 11 4.98 11 6 C7.57956185 5.21066812 4.26202163 4.30480865 1 3 C0.67 2.01 0.34 1.02 0 0 Z " fill="#2F4E50" transform="translate(218,96)"/>
<path d="M0 0 C-0.66 0.66 -1.32 1.32 -2 2 C-1.01 2.66 -0.02 3.32 1 4 C-1.31 4.33 -3.62 4.66 -6 5 C-6.66 3.68 -7.32 2.36 -8 1 C-2.25 -1.125 -2.25 -1.125 0 0 Z " fill="#B4C3C4" transform="translate(156,169)"/>
<path d="M0 0 C-0.38597015 2.79828356 -0.80136573 3.8205884 -2.9375 5.75 C-5 7 -5 7 -7 7 C-6.6875 4.625 -6.6875 4.625 -6 2 C-3 0 -3 0 0 0 Z " fill="#E5EDEE" transform="translate(155,159)"/>
<path d="M0 0 C-0.5 1.875 -0.5 1.875 -2 4 C-4.65177645 4.98494554 -7.20547307 5.45912382 -10 6 C-9 4 -9 4 -7 3 C-8.32 2.67 -9.64 2.34 -11 2 C-7.12315913 0.80712589 -4.08378077 0 0 0 Z " fill="#768E90" transform="translate(81,94)"/>
<path d="M0 0 C-0.875 3.875 -0.875 3.875 -2 5 C-3.66617115 5.04063832 -5.33388095 5.042721 -7 5 C-7 3.68 -7 2.36 -7 1 C-4.53721199 -0.231394 -2.7204945 -0.07159196 0 0 Z " fill="#3A5A5B" transform="translate(233,67)"/>
<path d="M0 0 C1.4540625 0.0309375 1.4540625 0.0309375 2.9375 0.0625 C2.2259375 0.68125 2.2259375 0.68125 1.5 1.3125 C-0.22516518 3.244685 -0.62834875 4.54442275 -1.0625 7.0625 C-1.7225 7.0625 -2.3825 7.0625 -3.0625 7.0625 C-3.3925 7.7225 -3.7225 8.3825 -4.0625 9.0625 C-4.16015625 2.91015625 -4.16015625 2.91015625 -4.0625 1.0625 C-3.0625 0.0625 -3.0625 0.0625 0 0 Z " fill="#072D30" transform="translate(110.0625,53.9375)"/>
<path d="M0 0 C-0.928125 0.4021875 -0.928125 0.4021875 -1.875 0.8125 C-4.2995233 1.95556848 -4.2995233 1.95556848 -6 5 C-4.68 5.33 -3.36 5.66 -2 6 C-3.65 6.33 -5.3 6.66 -7 7 C-7.33 5.35 -7.66 3.7 -8 2 C-9.65 2.66 -11.3 3.32 -13 4 C-11 1 -11 1 -8.1875 0.3125 C-5.42559682 0.04172518 -2.77147648 -0.08151401 0 0 Z " fill="#466466" transform="translate(80,153)"/>
<path d="M0 0 C0.90105469 0.01804687 1.80210937 0.03609375 2.73046875 0.0546875 C3.41753906 0.07789062 4.10460937 0.10109375 4.8125 0.125 C4.8125 1.115 4.8125 2.105 4.8125 3.125 C0.5225 2.795 -3.7675 2.465 -8.1875 2.125 C-4.87379 -0.08414 -3.8428979 -0.09981553 0 0 Z " fill="#E4EDEE" transform="translate(151.1875,22.875)"/>
<path d="M0 0 C-0.57344937 2.86724686 -0.8614515 3.8614515 -3 6 C-3.66 6 -4.32 6 -5 6 C-6.62514468 7.45833358 -6.62514468 7.45833358 -8 9 C-8.66 8.67 -9.32 8.34 -10 8 C-8.90653119 6.65787938 -7.7998425 5.32652025 -6.6875 4 C-5.76517578 2.88625 -5.76517578 2.88625 -4.82421875 1.75 C-3 0 -3 0 0 0 Z " fill="#375658" transform="translate(167,164)"/>
<path d="M0 0 C0.268125 0.556875 0.53625 1.11375 0.8125 1.6875 C2.10122647 4.19712523 3.52926478 6.59334236 5 9 C4.01 9.66 3.02 10.32 2 11 C-0.26881841 7.91440696 -1.05451946 6.57790624 -0.6875 2.6875 C-0.460625 1.800625 -0.23375 0.91375 0 0 Z " fill="#234447" transform="translate(119,54)"/>
<path d="M0 0 C0.66 0 1.32 0 2 0 C2 5.28 2 10.56 2 16 C1.67 16 1.34 16 1 16 C0.67 12.37 0.34 8.74 0 5 C-0.66 5 -1.32 5 -2 5 C-1.34 3.35 -0.68 1.7 0 0 Z " fill="#B9C8CA" transform="translate(217,162)"/>
<path d="M0 0 C1.21236328 0.04060547 1.21236328 0.04060547 2.44921875 0.08203125 C3.06410156 0.11683594 3.67898437 0.15164062 4.3125 0.1875 C4.3125 0.5175 4.3125 0.8475 4.3125 1.1875 C1.6725 1.1875 -0.9675 1.1875 -3.6875 1.1875 C-3.935 1.785625 -4.1825 2.38375 -4.4375 3 C-5.85120012 5.47397521 -7.33805383 6.62120255 -9.6875 8.1875 C-7.73954525 2.6433211 -6.20630826 -0.26983949 0 0 Z " fill="#365457" transform="translate(243.6875,151.8125)"/>
<path d="M0 0 C3.465 1.98 3.465 1.98 7 4 C3.46905698 5.20220203 0.87101018 4.79532349 -2.75 4.0625 C-3.73484375 3.86785156 -4.7196875 3.67320313 -5.734375 3.47265625 C-6.48203125 3.31667969 -7.2296875 3.16070313 -8 3 C-8 2.67 -8 2.34 -8 2 C-5.36 2 -2.72 2 0 2 C0 1.34 0 0.68 0 0 Z " fill="#355558" transform="translate(154,27)"/>
<path d="M0 0 C2.4375 0.6875 2.4375 0.6875 5 2 C5.8125 4.625 5.8125 4.625 6 7 C5.34 7 4.68 7 4 7 C3.67 7.66 3.34 8.32 3 9 C2.01 6.03 1.02 3.06 0 0 Z " fill="#1C3F43" transform="translate(157,31)"/>
<path d="M0 0 C1.65 0 3.3 0 5 0 C3.02 4.455 3.02 4.455 1 9 C0.67 9 0.34 9 0 9 C0 6.03 0 3.06 0 0 Z " fill="#D4E0E0" transform="translate(124,157)"/>
<path d="M0 0 C-2 3 -2 3 -4.625 3.6875 C-5.800625 3.8421875 -5.800625 3.8421875 -7 4 C-7.33 3.01 -7.66 2.02 -8 1 C-3.375 -1.125 -3.375 -1.125 0 0 Z " fill="#2D4F52" transform="translate(141,23)"/>
<path d="M0 0 C1.32 0 2.64 0 4 0 C3.01 2.97 2.02 5.94 1 9 C0.67 9 0.34 9 0 9 C0 6.03 0 3.06 0 0 Z " fill="#DEE8E8" transform="translate(209,159)"/>
<path d="M0 0 C0.66 0 1.32 0 2 0 C1.67 2.31 1.34 4.62 1 7 C-0.32 7 -1.64 7 -3 7 C-1.125 1.125 -1.125 1.125 0 0 Z " fill="#DBE5E5" transform="translate(125,38)"/>
<path d="M0 0 C0 0.33 0 0.66 0 1 C-0.9075 1.226875 -1.815 1.45375 -2.75 1.6875 C-6.44888324 3.18127977 -7.77905658 4.75400577 -10 8 C-10.21917317 5.29686424 -10.32851983 3.56041618 -8.9375 1.1875 C-6.00731249 -0.60842137 -3.3527047 -0.18977574 0 0 Z " fill="#C8D6D6" transform="translate(190,140)"/>
<path d="M0 0 C1.66519519 0.34060811 3.33157466 0.67558396 5 1 C5 1.33 5 1.66 5 2 C1.37 2.33 -2.26 2.66 -6 3 C-6 2.01 -6 1.02 -6 0 C-3.44211818 -1.27894091 -2.70140697 -0.77183056 0 0 Z " fill="#BFCDCE" transform="translate(146,24)"/>
<path d="M0 0 C0.33 0 0.66 0 1 0 C1.33 1.65 1.66 3.3 2 5 C2.99 5 3.98 5 5 5 C4.67 6.32 4.34 7.64 4 9 C2.68 8.67 1.36 8.34 0 8 C0 5.36 0 2.72 0 0 Z " fill="#456365" transform="translate(123,161)"/>
<path d="M0 0 C0.66 0.33 1.32 0.66 2 1 C-0.31 3.64 -2.62 6.28 -5 9 C-5 4.61031544 -2.87194899 3.23094261 0 0 Z " fill="#314F52" transform="translate(218,154)"/>
<path d="M0 0 C0.33 1.32 0.66 2.64 1 4 C0.46375 3.814375 -0.0725 3.62875 -0.625 3.4375 C-3.61990614 2.88580676 -6.03745829 3.39402556 -9 4 C-6.43425105 1.43425105 -3.68548192 0 0 0 Z " fill="#516F70" transform="translate(226,69)"/>
<path d="M0 0 C3.68754757 0.49831724 5.60490662 1.10067643 8 4 C5.36 3.67 2.72 3.34 0 3 C0 2.01 0 1.02 0 0 Z " fill="#294A4B" transform="translate(64,66)"/>
<path d="M0 0 C0 0.66 0 1.32 0 2 C-3 4 -3 4 -5.1875 3.625 C-5.785625 3.41875 -6.38375 3.2125 -7 3 C-7 2.34 -7 1.68 -7 1 C-4.50935112 0.31292445 -2.62113708 0 0 0 Z " fill="#163C3C" transform="translate(66,99)"/>
<path d="M0 0 C2.64 0.33 5.28 0.66 8 1 C7.01 1.33 6.02 1.66 5 2 C5 2.66 5 3.32 5 4 C3.0625 3.6875 3.0625 3.6875 1 3 C0.67 2.01 0.34 1.02 0 0 Z " fill="#436163" transform="translate(218,96)"/>
<path d="M0 0 C1.258125 -0.020625 2.51625 -0.04125 3.8125 -0.0625 C4.52019531 -0.07410156 5.22789063 -0.08570312 5.95703125 -0.09765625 C8 0 8 0 11 1 C11 1.66 11 2.32 11 3 C10.29875 2.855625 9.5975 2.71125 8.875 2.5625 C5.92443859 1.98521625 2.96729849 1.48304859 0 1 C0 0.67 0 0.34 0 0 Z " fill="#839899" transform="translate(72,81)"/>
<path d="M0 0 C-1.15173355 2.46800047 -2.04783565 4.04783565 -4 6 C-4.66 5.67 -5.32 5.34 -6 5 C-3.74193548 0 -3.74193548 0 0 0 Z " fill="#224547" transform="translate(130,30)"/>
</svg>
